<?xml version="1.0" encoding="utf-8"?>
<!-- Generator: Adobe Illustrator 21.0.2, SVG Export Plug-In . SVG Version: 6.00 Build 0)  -->
<svg version="1.1" id="Livello_1" xmlns="http://www.w3.org/2000/svg" xmlns:xlink="http://www.w3.org/1999/xlink" x="0px" y="0px"
	 viewBox="0 0 100 100" style="enable-background:new 0 0 100 100;" xml:space="preserve">
<style type="text/css">
	.st0{fill:#F4D1CE;}
	.st1{fill:none;}
	.st2{fill:#85D6F9;}
	.st3{fill:#87D37C;}
</style>
<circle class="st0" cx="52" cy="55" r="35"/>
<g>
	<path class="st1" d="M83.6,40.2c-3,0.7-6.1,1.1-9.4,1.1c-14,0-26.5-7-34-17.6c-4.1,10-11.9,18-21.7,22.4c-0.1,1.2-0.2,2.4-0.2,3.6
		C18.3,68,33.3,83,51.7,83S85,68,85,49.7C85,46.4,84.5,43.2,83.6,40.2z M39.2,59c-2.9,0-5.2-2.3-5.2-5.2s2.3-5.2,5.2-5.2
		s5.2,2.3,5.2,5.2S42,59,39.2,59z M64.2,59c-2.9,0-5.2-2.3-5.2-5.2s2.3-5.2,5.2-5.2s5.2,2.3,5.2,5.2S67,59,64.2,59z"/>
	<circle cx="39.2" cy="53.8" r="5.2"/>
	<path d="M51.7,8C28.7,8,10,26.7,10,49.7s18.7,41.7,41.7,41.7s41.7-18.7,41.7-41.7S74.7,8,51.7,8z M51.7,83
		c-18.4,0-33.3-15-33.3-33.3c0-1.2,0.1-2.4,0.2-3.6c9.8-4.4,17.6-12.4,21.7-22.4c7.5,10.7,20,17.6,34,17.6c3.3,0,6.4-0.4,9.4-1.1
		c0.9,3,1.4,6.1,1.4,9.4C85,68,70,83,51.7,83z"/>
	<circle cx="64.2" cy="53.8" r="5.2"/>
</g>
<path class="st1" d="M0,0h100v100H0V0z"/>
<circle class="st2" cx="39" cy="54" r="6"/>
<circle class="st2" cx="64" cy="54" r="6"/>
<g>
	<path class="st3" d="M10,74H6c-1.7,0-3-1.3-3-3l0,0c0-1.7,1.3-3,3-3h4c1.7,0,3,1.3,3,3l0,0C13,72.7,11.7,74,10,74z"/>
	<path class="st3" d="M22,74h-4c-1.7,0-3-1.3-3-3l0,0c0-1.7,1.3-3,3-3h4c1.7,0,3,1.3,3,3l0,0C25,72.7,23.7,74,22,74z"/>
	<path class="st3" d="M34,74h-4c-1.7,0-3-1.3-3-3l0,0c0-1.7,1.3-3,3-3h4c1.7,0,3,1.3,3,3l0,0C37,72.7,35.7,74,34,74z"/>
	<path class="st3" d="M46,74h-4c-1.7,0-3-1.3-3-3l0,0c0-1.7,1.3-3,3-3h4c1.7,0,3,1.3,3,3l0,0C49,72.7,47.7,74,46,74z"/>
	<path class="st3" d="M58,74h-4c-1.7,0-3-1.3-3-3l0,0c0-1.7,1.3-3,3-3h4c1.7,0,3,1.3,3,3l0,0C61,72.7,59.7,74,58,74z"/>
	<path class="st3" d="M70,74h-4c-1.7,0-3-1.3-3-3l0,0c0-1.7,1.3-3,3-3h4c1.7,0,3,1.3,3,3l0,0C73,72.7,71.7,74,70,74z"/>
	<path class="st3" d="M82,74h-4c-1.7,0-3-1.3-3-3l0,0c0-1.7,1.3-3,3-3h4c1.7,0,3,1.3,3,3l0,0C85,72.7,83.7,74,82,74z"/>
	<path class="st3" d="M94,74h-4c-1.7,0-3-1.3-3-3l0,0c0-1.7,1.3-3,3-3h4c1.7,0,3,1.3,3,3l0,0C97,72.7,95.7,74,94,74z"/>
</g>
</svg>
